<svg width="21" height="21" viewBox="0 0 21 21" fill="none" xmlns="http://www.w3.org/2000/svg">
<rect width="21" height="21" rx="10.5" fill="#E5E5E5"/>
<path d="M13.7833 5.01158C11.7823 4.62944 9.70425 4.62944 7.70321 5.01158C6.81813 5.20265 5.70216 6.27264 5.50975 7.11335C5.16342 8.75655 5.16342 10.438 5.50975 12.0812C5.74064 12.9219 6.85661 13.9919 7.70321 14.1829C7.74169 14.1829 7.78017 14.2211 7.78017 14.2594V16.6668C7.78017 16.7815 7.9341 16.8579 8.01106 16.7433L9.16551 15.5586C9.16551 15.5586 10.0891 14.6033 10.243 14.4504C10.243 14.4504 10.2815 14.4122 10.32 14.4122C11.4744 14.4504 12.6673 14.3358 13.8218 14.1447C14.7069 13.9536 15.8228 12.8837 16.0152 12.0429C16.3616 10.3997 16.3616 8.71833 16.0152 7.07513C15.7844 6.27264 14.6684 5.20265 13.7833 5.01158ZM13.8218 12.1958C13.6294 12.5779 13.3985 12.8837 13.0137 13.0747C12.8982 13.1129 12.7828 13.1512 12.6673 13.1894C12.5134 13.1512 12.398 13.1129 12.2825 13.0747C11.0511 12.5779 9.89666 11.8901 8.9731 10.8965C8.47284 10.3233 8.04954 9.67368 7.70321 8.98583C7.54928 8.64191 7.39535 8.33619 7.27991 7.99227C7.16446 7.68656 7.35687 7.38085 7.54928 7.15156C7.74169 6.92228 7.97258 6.76942 8.24195 6.65478C8.43436 6.54014 8.62677 6.61657 8.78069 6.76942C9.08855 7.15156 9.3964 7.5337 9.62729 7.95405C9.78122 8.22155 9.74273 8.52726 9.47336 8.71833C9.3964 8.75655 9.35792 8.79476 9.28095 8.87119C9.24247 8.9094 9.16551 8.94762 9.12703 9.02404C9.05006 9.13869 9.05006 9.25333 9.08855 9.36797C9.3964 10.2469 9.97362 10.9347 10.8587 11.3169C11.0126 11.3933 11.1281 11.4315 11.3205 11.4315C11.5899 11.3933 11.7053 11.0876 11.8977 10.9347C12.0901 10.7819 12.321 10.7819 12.5519 10.8965C12.7443 11.0112 12.9367 11.164 13.1676 11.3169C13.36 11.4697 13.5524 11.5844 13.7448 11.7372C13.8603 11.8137 13.8988 12.0047 13.8218 12.1958ZM12.2056 9.32976C12.1286 9.32976 12.1671 9.32976 12.2056 9.32976C12.0516 9.32976 12.0132 9.25333 11.9747 9.13869C11.9747 9.06226 11.9747 8.94762 11.9362 8.87119C11.8977 8.71833 11.8207 8.56548 11.6668 8.45084C11.5899 8.41262 11.5129 8.37441 11.4359 8.33619C11.3205 8.29798 11.2435 8.29798 11.1281 8.29798C11.0126 8.25977 10.9741 8.18334 10.9741 8.0687C10.9741 7.99227 11.0896 7.91584 11.1666 7.91584C11.7823 7.95406 12.244 8.29798 12.321 9.02404C12.321 9.06226 12.321 9.13869 12.321 9.1769C12.321 9.25333 12.2825 9.32976 12.2056 9.32976ZM11.8207 7.64834C11.6283 7.57192 11.4359 7.49549 11.205 7.45727C11.1281 7.45727 11.0126 7.41906 10.9357 7.41906C10.8202 7.41906 10.7433 7.34263 10.7817 7.22799C10.7817 7.11335 10.8587 7.03692 10.9741 7.07513C11.359 7.11335 11.7053 7.18978 12.0516 7.34263C12.7443 7.68656 13.1291 8.25977 13.2446 9.02404C13.2446 9.06226 13.2446 9.10047 13.2446 9.13869C13.2446 9.21512 13.2446 9.29154 13.2446 9.40618C13.2446 9.4444 13.2446 9.48261 13.2446 9.52083C13.2061 9.67368 12.9367 9.7119 12.8982 9.52083C12.8982 9.48261 12.8598 9.40619 12.8598 9.36797C12.8598 9.02405 12.7828 8.68012 12.6289 8.37441C12.398 8.03048 12.1286 7.8012 11.8207 7.64834ZM13.8988 9.94118C13.7833 9.94118 13.7063 9.82654 13.7063 9.7119C13.7063 9.48261 13.6679 9.25333 13.6294 9.02404C13.4755 7.8012 12.4749 6.80764 11.282 6.61657C11.0896 6.57835 10.8972 6.57835 10.7433 6.54014C10.6278 6.54014 10.4739 6.54014 10.4354 6.38728C10.3969 6.27264 10.5124 6.158 10.6278 6.158C10.6663 6.158 10.7048 6.158 10.7048 6.158C10.7817 6.158 12.2825 6.19621 10.7048 6.158C12.321 6.19621 13.6679 7.2662 13.9372 8.87119C13.9757 9.13869 14.0142 9.40619 14.0142 9.7119C14.0912 9.82654 14.0142 9.94118 13.8988 9.94118Z" fill="white"/>
</svg>
