<svg width="22" height="21" viewBox="0 0 22 21" fill="none" xmlns="http://www.w3.org/2000/svg">
<rect width="22" height="21" rx="10.5" fill="#4C4C4C"/>
<path d="M14.4311 11.9662C14.7197 11.6907 14.7609 11.2972 14.5136 10.9036C14.3074 10.5888 13.9364 10.4314 13.5241 10.5101C13.3592 10.5494 13.1942 10.6282 13.0293 10.7462C11.7512 11.5727 10.0196 11.5333 8.74155 10.7069C8.6591 10.6675 8.57664 10.6282 8.49418 10.5888C8.04067 10.392 7.58716 10.4707 7.33979 10.8643C7.05119 11.2578 7.09241 11.6907 7.46347 12.0449C7.54592 12.1236 7.62838 12.163 7.66961 12.2417L7.71084 12.281C8.28804 12.7139 8.98893 12.9894 9.89596 13.1075L9.35998 13.6191C8.90647 14.052 8.41173 14.5243 7.95821 14.9572C7.83453 15.0752 7.66961 15.272 7.66961 15.5475C7.66961 15.9017 7.87576 16.2559 8.24681 16.4133C8.3705 16.492 8.49418 16.492 8.61787 16.492C8.82401 16.492 9.07138 16.4133 9.2363 16.2165C9.85472 15.6262 10.3495 15.1539 10.8442 14.6817C10.8854 14.6423 10.8854 14.6423 10.8854 14.6423C10.8854 14.6423 10.9267 14.6423 10.9267 14.6817C11.2565 15.0359 11.6276 15.3507 11.9574 15.7049C12.1223 15.8623 12.2872 16.0197 12.4521 16.1771C12.6583 16.3739 12.8232 16.4526 13.0706 16.4526C13.4416 16.492 13.8539 16.2559 14.0188 15.9017C14.1837 15.5868 14.1013 15.1933 13.8127 14.9572C13.4004 14.5636 12.9881 14.1307 12.5346 13.7372L11.8337 13.0681C12.2048 13.0288 12.617 12.9501 12.9881 12.7927C13.6065 12.5959 14.06 12.3204 14.4311 11.9662Z" fill="white"/>
<path d="M10.8854 10.8643C12.6583 10.8643 14.1013 9.52623 14.1013 7.83398C14.1013 7.00754 13.7714 6.22045 13.153 5.63013C12.5346 5.03981 11.7512 4.72498 10.9267 4.72498C9.15384 4.72498 7.75207 6.10238 7.71084 7.75527C7.71084 8.58172 8.04067 9.32945 8.6591 9.91977C9.2363 10.5494 10.0196 10.8643 10.8854 10.8643ZM9.97841 6.92883C10.2258 6.6927 10.5556 6.57464 10.8854 6.57464C11.6276 6.57464 12.1635 7.1256 12.1635 7.79463C12.1635 8.50301 11.5863 9.01462 10.8854 9.01462C10.1433 9.01462 9.60736 8.46366 9.60736 7.79463C9.60736 7.47979 9.73104 7.16496 9.97841 6.92883Z" fill="white"/>
<path d="M14.4311 11.9662C14.7197 11.6907 14.7609 11.2972 14.5136 10.9036C14.3074 10.5888 13.9364 10.4314 13.5241 10.5101C13.3592 10.5494 13.1942 10.6282 13.0293 10.7462C11.7512 11.5727 10.0196 11.5333 8.74155 10.7069C8.6591 10.6675 8.57664 10.6282 8.49418 10.5888C8.04067 10.392 7.58716 10.4707 7.33979 10.8643C7.05119 11.2578 7.09241 11.6907 7.46347 12.0449C7.54592 12.1236 7.62838 12.163 7.66961 12.2417L7.71084 12.281C8.28804 12.7139 8.98893 12.9894 9.89596 13.1075L9.35998 13.6191C8.90647 14.052 8.41173 14.5243 7.95821 14.9572C7.83453 15.0752 7.66961 15.272 7.66961 15.5475C7.66961 15.9017 7.87576 16.2559 8.24681 16.4133C8.3705 16.492 8.49418 16.492 8.61787 16.492C8.82401 16.492 9.07138 16.4133 9.2363 16.2165C9.85472 15.6262 10.3495 15.1539 10.8442 14.6817C10.8854 14.6423 10.8854 14.6423 10.8854 14.6423C10.8854 14.6423 10.9267 14.6423 10.9267 14.6817C11.2565 15.0359 11.6276 15.3507 11.9574 15.7049C12.1223 15.8623 12.2872 16.0197 12.4521 16.1771C12.6583 16.3739 12.8232 16.4526 13.0706 16.4526C13.4416 16.492 13.8539 16.2559 14.0188 15.9017C14.1837 15.5868 14.1013 15.1933 13.8127 14.9572C13.4004 14.5636 12.9881 14.1307 12.5346 13.7372L11.8337 13.0681C12.2048 13.0288 12.617 12.9501 12.9881 12.7927C13.6065 12.5959 14.06 12.3204 14.4311 11.9662Z" fill="white"/>
</svg>
