<svg width="22" height="21" viewBox="0 0 22 21" fill="none" xmlns="http://www.w3.org/2000/svg">
<rect width="22" height="21" rx="10.5" fill="#E5E5E5"/>
<path d="M15.3598 6.33279C14.2732 5.29919 12.8244 4.72498 11.2951 4.72498C8.11585 4.72498 5.54024 7.17498 5.54024 10.1992C5.54024 11.1562 5.82195 12.1133 6.30488 12.9172L5.5 15.75L8.55854 14.9844C9.40366 15.4054 10.3293 15.6351 11.2951 15.6351C14.4744 15.6351 17.05 13.1851 17.05 10.1609C17.0098 8.74451 16.4463 7.36638 15.3598 6.33279ZM14.072 12.1515C13.9512 12.4578 13.3878 12.764 13.1061 12.8023C12.8646 12.8406 12.5427 12.8406 12.2207 12.764C12.0195 12.6875 11.7378 12.6109 11.4159 12.4578C9.96707 11.8836 9.04146 10.5054 8.96098 10.3906C8.88049 10.314 8.35732 9.66326 8.35732 8.97419C8.35732 8.28513 8.71951 7.97888 8.84024 7.82576C8.96098 7.67263 9.12195 7.67263 9.24268 7.67263C9.32317 7.67263 9.4439 7.67263 9.52439 7.67263C9.60488 7.67263 9.72561 7.63435 9.84634 7.90232C9.96707 8.17029 10.2488 8.85935 10.289 8.89763C10.3293 8.97419 10.3293 9.05076 10.289 9.12732C10.2488 9.20388 10.2085 9.28044 10.128 9.35701C10.0476 9.43357 9.96707 9.54841 9.92683 9.58669C9.84634 9.66326 9.76585 9.73982 9.84634 9.85466C9.92683 10.0078 10.2085 10.4289 10.6512 10.8117C11.2146 11.2711 11.6573 11.4242 11.8183 11.5008C11.9793 11.5773 12.0598 11.539 12.1402 11.4625C12.2207 11.3859 12.5024 11.0797 12.5829 10.9265C12.6634 10.7734 12.7841 10.8117 12.9049 10.85C13.0256 10.8883 13.75 11.2328 13.8707 11.3094C14.0317 11.3859 14.1122 11.4242 14.1524 11.4625C14.1927 11.5773 14.1927 11.8453 14.072 12.1515Z" fill="white"/>
</svg>
